# Blender 4.0.2
# www.blender.org
mtllib Card_Stone_Model.mtl
o Card
v 1.000000 -0.047757 -0.798381
v 0.798381 -0.047757 -1.000000
v 0.972988 -0.047757 -0.899191
v 0.899191 -0.047757 -0.972988
v 0.798381 -0.047757 1.000000
v 1.000000 -0.047757 0.798381
v 0.899191 -0.047757 0.972988
v 0.972988 -0.047757 0.899191
v -0.798381 -0.047757 -1.000000
v -1.000000 -0.047757 -0.798381
v -0.899191 -0.047757 -0.972988
v -0.972988 -0.047757 -0.899191
v -1.000000 -0.047757 0.798381
v -0.798381 -0.047757 1.000000
v -0.972988 -0.047757 0.899191
v -0.899191 -0.047757 0.972988
v -1.000000 0.047757 -0.798381
v -0.798381 0.047757 -1.000000
v -0.857434 0.047757 -0.857434
v -0.972988 0.047757 -0.899191
v -0.899191 0.047757 -0.972988
v -0.798381 0.047757 1.000000
v -1.000000 0.047757 0.798381
v -0.857434 0.047757 0.857434
v -0.899191 0.047757 0.972988
v -0.972988 0.047757 0.899191
v 0.798381 0.047757 -1.000000
v 1.000000 0.047757 -0.798381
v 0.857434 0.047757 -0.857434
v 0.899191 0.047757 -0.972988
v 0.972988 0.047757 -0.899191
v 1.000000 0.047757 0.798381
v 0.798381 0.047757 1.000000
v 0.857434 0.047757 0.857434
v 0.972988 0.047757 0.899191
v 0.899191 0.047757 0.972988
v 0.856505 0.047757 -0.732303
v 0.732303 0.047757 -0.856505
v 0.857399 0.047757 -0.857399
v 0.839865 0.047757 -0.794404
v 0.794404 0.047757 -0.839865
v 0.732303 0.047757 0.856505
v 0.856505 0.047757 0.732303
v 0.857399 0.047757 0.857399
v 0.794404 0.047757 0.839865
v 0.839865 0.047757 0.794404
v -0.732303 0.047757 -0.856505
v -0.856505 0.047757 -0.732303
v -0.857399 0.047757 -0.857399
v -0.794404 0.047757 -0.839865
v -0.839865 0.047757 -0.794404
v -0.856505 0.047757 0.732303
v -0.732303 0.047757 0.856505
v -0.857399 0.047757 0.857399
v -0.839865 0.047757 0.794404
v -0.794404 0.047757 0.839865
v 0.856505 0.005904 0.732303
v 0.732303 0.005904 0.856505
v 0.839865 0.005904 0.794404
v 0.794404 0.005904 0.839865
v 0.732303 0.005904 -0.856505
v 0.856505 0.005904 -0.732303
v 0.794404 0.005904 -0.839865
v 0.839865 0.005904 -0.794404
v -0.732303 0.005904 0.856505
v -0.856505 0.005904 0.732303
v -0.794404 0.005904 0.839865
v -0.839865 0.005904 0.794404
v -0.856505 0.005904 -0.732303
v -0.732303 0.005904 -0.856505
v -0.839865 0.005904 -0.794404
v -0.794404 0.005904 -0.839865
vn 0.1305 -0.0000 0.9914
vn -0.1305 -0.0000 0.9914
vn -0.9914 -0.0000 0.1305
vn -0.9914 -0.0000 -0.1305
vn -0.0000 1.0000 -0.0000
vn -0.1305 -0.0000 -0.9914
vn 0.1305 -0.0000 -0.9914
vn -0.0000 -1.0000 -0.0000
vn 0.9914 -0.0000 -0.1305
vn 0.9914 -0.0000 0.1305
vn 0.8660 -0.0000 -0.5000
vn 0.5000 -0.0000 -0.8660
vn -0.5000 -0.0000 0.8660
vn -0.8660 -0.0000 0.5000
vn 0.5000 -0.0000 0.8660
vn 0.8660 -0.0000 0.5000
vn -0.5000 -0.0000 -0.8660
vn -0.8660 -0.0000 -0.5000
vn 0.9659 -0.0000 -0.2588
vn 0.7071 -0.0000 -0.7071
vn 0.2588 -0.0000 -0.9659
vn 0.9659 -0.0000 0.2588
vn 0.7071 -0.0000 0.7071
vn 0.2588 -0.0000 0.9659
vn -0.2588 -0.0000 -0.9659
vn -0.7071 -0.0000 -0.7071
vn -0.9659 -0.0000 -0.2588
vn -0.2588 -0.0000 0.9659
vn -0.7071 -0.0000 0.7071
vn -0.9659 -0.0000 0.2588
vt 0.398661 0.287848
vt 0.239503 0.430015
vt 0.201629 0.034083
vt 0.386451 0.210368
vt 0.407545 0.190833
vt 0.236030 0.000142
vt 0.639630 0.011289
vt 0.501262 0.178645
vt 0.689559 0.743741
vt 0.682838 0.741940
vt 0.677918 0.737020
vt 0.676117 0.730299
vt 0.676117 0.571794
vt 0.677918 0.565073
vt 0.682838 0.560153
vt 0.689559 0.558353
vt 0.848064 0.558353
vt 0.854785 0.560153
vt 0.859705 0.565073
vt 0.861506 0.571794
vt 0.861506 0.730299
vt 0.859705 0.737020
vt 0.854785 0.741940
vt 0.848064 0.743741
vt 0.913371 0.224116
vt 0.913276 0.106108
vt 0.989655 0.029678
vt 0.999858 0.295279
vt 0.261770 0.671210
vt 0.258236 0.684397
vt 0.248583 0.694051
vt 0.235395 0.697585
vt 0.026517 0.697585
vt 0.013329 0.694051
vt 0.003676 0.684397
vt 0.000142 0.671210
vt 0.000142 0.462331
vt 0.003676 0.449144
vt 0.013329 0.439490
vt 0.026517 0.435957
vt 0.235395 0.435957
vt 0.248583 0.439490
vt 0.258236 0.449144
vt 0.261770 0.462331
vt 0.497765 0.299429
vt 0.646238 0.462563
vt 0.268084 0.458595
vt 0.413106 0.301964
vt 0.776679 0.248486
vt 0.900728 0.237357
vt 0.980396 0.316287
vt 0.698868 0.341198
vt 0.900337 0.094204
vt 0.784983 0.084413
vt 0.697080 0.000142
vt 0.969499 0.010760
vt 0.877045 0.357067
vt 0.863620 0.357183
vt 0.705121 0.357097
vt 0.691621 0.357061
vt 0.691608 0.357048
vt 0.697934 0.341482
vt 0.870669 0.341691
vt 0.877058 0.357054
vt 0.676229 0.363432
vt 0.679087 0.352566
vt 0.687006 0.344522
vt 0.698061 0.558068
vt 0.687181 0.555186
vt 0.691687 0.542653
vt 0.679141 0.547242
vt 0.676117 0.536301
vt 0.881528 0.344538
vt 0.889574 0.352444
vt 0.892624 0.363363
vt 0.892624 0.536072
vt 0.889762 0.546937
vt 0.877240 0.542450
vt 0.881842 0.554981
vt 0.870911 0.558022
vt 0.505208 0.295421
vt 0.656054 0.453102
vt 0.510829 0.290605
vt 0.666049 0.443082
vt 0.513529 0.282829
vt 0.675833 0.432844
vt 0.213006 0.022407
vt 0.389837 0.200306
vt 0.224621 0.010966
vt 0.396953 0.194083
vt 0.401953 0.293890
vt 0.407089 0.298955
vt 0.670169 0.038758
vt 0.519022 0.191101
vt 0.514284 0.184399
vt 0.660424 0.029619
vt 0.508396 0.179756
vt 0.650122 0.020342
vt 0.877227 0.542437
vt 0.877136 0.529017
vt 0.877022 0.370564
vt 0.691700 0.542640
vt 0.705141 0.542570
vt 0.863708 0.542410
vt 0.691727 0.370487
vt 0.691751 0.529115
vt 0.875192 0.363848
vt 0.870290 0.358961
vt 0.870434 0.540578
vt 0.875346 0.535676
vt 0.698403 0.358921
vt 0.693510 0.363819
vt 0.693572 0.535842
vt 0.698472 0.540767
vt 0.976461 0.017031
vt 0.905733 0.096791
vt 0.983263 0.023428
vt 0.910336 0.100987
vt 0.778356 0.088314
vt 0.690126 0.007501
vt 0.773423 0.093208
vt 0.683044 0.015288
vt 0.771309 0.099439
vt 0.676117 0.023253
vt 0.993410 0.302549
vt 0.910510 0.230406
vt 0.986824 0.309643
vt 0.906494 0.235154
vt 0.676117 0.319712
vt 0.763069 0.233389
vt 0.765457 0.241159
vt 0.683354 0.326851
vt 0.769823 0.246168
vt 0.691011 0.334108
s 1
usemtl Material
f 33/1/1 22/4/2 14/3/2 5/2/1
f 23/5/3 17/8/4 10/7/4 13/6/3
f 69/9/5 66/24/5 68/23/5 67/22/5 65/21/5 58/20/5 60/19/5 59/18/5 57/17/5 62/16/5 64/15/5 63/14/5 61/13/5 70/12/5 72/11/5 71/10/5
f 42/25/6 58/28/6 65/27/7 53/26/7
f 1/29/8 6/44/8 8/43/8 7/42/8 5/41/8 14/40/8 16/39/8 15/38/8 13/37/8 10/36/8 12/35/8 11/34/8 9/33/8 2/32/8 4/31/8 3/30/8
f 28/45/9 32/48/10 6/47/10 1/46/9
f 37/49/3 62/52/3 57/51/4 43/50/4
f 52/53/9 66/56/9 69/55/10 48/54/10
f 39/57/5 29/64/5 27/63/5 18/62/5 19/61/5 49/60/5 47/59/5 38/58/5
f 17/65/5 19/61/5 20/66/5
f 20/66/5 19/61/5 21/67/5
f 21/67/5 19/61/5 18/62/5
f 22/68/5 24/70/5 25/69/5
f 25/69/5 24/70/5 26/71/5
f 26/71/5 24/70/5 23/72/5
f 27/63/5 29/64/5 30/73/5
f 30/73/5 29/64/5 31/74/5
f 31/74/5 29/64/5 28/75/5
f 32/76/5 34/78/5 35/77/5
f 35/77/5 34/78/5 36/79/5
f 36/79/5 34/78/5 33/80/5
f 1/46/9 3/82/11 31/81/11 28/45/9
f 3/82/11 4/84/12 30/83/12 31/81/11
f 4/84/12 2/86/7 27/85/7 30/83/12
f 22/4/2 25/88/13 16/87/13 14/3/2
f 25/88/13 26/90/14 15/89/14 16/87/13
f 26/90/14 23/5/3 13/6/3 15/89/14
f 5/2/1 7/42/15 36/91/15 33/1/1
f 7/42/15 8/43/16 35/92/16 36/91/15
f 8/43/16 6/47/10 32/48/10 35/92/16
f 9/93/6 11/96/17 21/95/17 18/94/6
f 11/96/17 12/98/18 20/97/18 21/95/17
f 12/98/18 10/7/4 17/8/4 20/97/18
f 18/94/6 27/85/7 2/86/7 9/93/6
f 44/99/5 34/78/5 32/76/5 28/75/5 29/64/5 39/57/5 37/101/5 43/100/5
f 54/102/5 24/70/5 22/68/5 33/80/5 34/78/5 44/99/5 42/104/5 53/103/5
f 49/60/5 19/61/5 17/65/5 23/72/5 24/70/5 54/102/5 52/106/5 48/105/5
f 37/101/5 39/57/5 40/107/5
f 40/107/5 39/57/5 41/108/5
f 41/108/5 39/57/5 38/58/5
f 42/104/5 44/99/5 45/109/5
f 45/109/5 44/99/5 46/110/5
f 46/110/5 44/99/5 43/100/5
f 47/59/5 49/60/5 50/111/5
f 50/111/5 49/60/5 51/112/5
f 51/112/5 49/60/5 48/105/5
f 52/106/5 54/102/5 55/113/5
f 55/113/5 54/102/5 56/114/5
f 56/114/5 54/102/5 53/103/5
f 52/53/9 55/116/19 68/115/19 66/56/9
f 55/116/20 56/118/20 67/117/20 68/115/20
f 56/118/21 53/26/7 65/27/7 67/117/21
f 69/55/10 71/120/22 51/119/22 48/54/10
f 71/120/23 72/122/23 50/121/23 51/119/23
f 72/122/24 70/124/1 47/123/1 50/121/24
f 42/25/6 45/126/25 60/125/25 58/28/6
f 45/126/26 46/128/26 59/127/26 60/125/26
f 46/128/27 43/50/4 57/51/4 59/127/27
f 61/129/2 63/132/28 41/131/28 38/130/2
f 63/132/29 64/134/29 40/133/29 41/131/29
f 64/134/30 62/52/3 37/49/3 40/133/30
f 47/123/1 70/124/1 61/129/2 38/130/2
